<svg id="Слой_1" data-name="Слой 1" xmlns="http://www.w3.org/2000/svg" xmlns:xlink="http://www.w3.org/1999/xlink" viewBox="0 0 15.3 12.54">
  <defs>
    <style>
      .cls-1 {
        fill: none;
      }

      .cls-2 {
        fill: #825e15;
      }

      .cls-3 {
        clip-path: url(#clip-path);
      }

      .cls-4 {
        fill: #fff;
      }

      .cls-5 {
        fill: #fefefe;
      }

      .cls-6 {
        fill: #fdfdfd;
      }

      .cls-7 {
        fill: #fcfcfc;
      }

      .cls-8 {
        fill: #fbfbfb;
      }

      .cls-9 {
        fill: #f9f9f9;
      }

      .cls-10 {
        fill: #f8f8f8;
      }

      .cls-11 {
        fill: #f7f7f7;
      }

      .cls-12 {
        fill: #f6f6f6;
      }

      .cls-13 {
        fill: #f5f5f5;
      }

      .cls-14 {
        fill: #f4f4f4;
      }

      .cls-15 {
        fill: #f3f3f3;
      }

      .cls-16 {
        fill: #f2f2f2;
      }

      .cls-17 {
        fill: #f1f1f1;
      }

      .cls-18 {
        fill: #f0f0f0;
      }

      .cls-19 {
        fill: #eee;
      }

      .cls-20 {
        fill: #ededed;
      }

      .cls-21 {
        fill: #ececec;
      }

      .cls-22 {
        fill: #ebebeb;
      }

      .cls-23 {
        fill: #eaeaea;
      }

      .cls-24 {
        fill: #e9e9e9;
      }

      .cls-25 {
        fill: #e8e8e8;
      }

      .cls-26 {
        fill: #e7e7e7;
      }

      .cls-27 {
        fill: #e6e6e6;
      }

      .cls-28 {
        fill: #e5e5e5;
      }

      .cls-29 {
        fill: #e4e4e4;
      }

      .cls-30 {
        fill: #e2e2e2;
      }

      .cls-31 {
        fill: #e1e1e1;
      }

      .cls-32 {
        fill: #e0e0e0;
      }

      .cls-33 {
        fill: #dfdfdf;
      }

      .cls-34 {
        fill: #dedede;
      }

      .cls-35 {
        fill: #ddd;
      }

      .cls-36 {
        fill: #dcdcdc;
      }

      .cls-37 {
        fill: #dbdbdb;
      }

      .cls-38 {
        fill: #dadada;
      }

      .cls-39 {
        fill: #d9d9d9;
      }

      .cls-40 {
        fill: #d8d8d8;
      }

      .cls-41 {
        fill: #d6d6d6;
      }

      .cls-42 {
        fill: #d5d5d5;
      }

      .cls-43 {
        fill: #d4d4d4;
      }

      .cls-44 {
        fill: #d3d3d3;
      }

      .cls-45 {
        fill: #d2d2d2;
      }

      .cls-46 {
        fill: #d1d1d1;
      }

      .cls-47 {
        fill: #d0d0d0;
      }

      .cls-48 {
        fill: #cfcfcf;
      }

      .cls-49 {
        fill: #cecece;
      }

      .cls-50 {
        fill: #cdcdcd;
      }

      .cls-51 {
        fill: #ccc;
      }

      .cls-52 {
        fill: #cbcbcb;
      }

      .cls-53 {
        fill: #c9c9c9;
      }

      .cls-54 {
        fill: #c8c8c8;
      }

      .cls-55 {
        fill: #c7c7c7;
      }

      .cls-56 {
        fill: #c6c6c6;
      }

      .cls-57 {
        fill: #c5c5c5;
      }

      .cls-58 {
        fill: #c4c4c4;
      }

      .cls-59 {
        fill: #c3c3c3;
      }

      .cls-60 {
        fill: #c2c2c2;
      }

      .cls-61 {
        fill: #c1c1c1;
      }

      .cls-62 {
        fill: silver;
      }

      .cls-63 {
        fill: #bfbfbf;
      }

      .cls-64 {
        fill: #bebebe;
      }

      .cls-65 {
        fill: #bdbdbd;
      }

      .cls-66 {
        fill: #bbb;
      }

      .cls-67 {
        fill: #bababa;
      }

      .cls-68 {
        fill: #b9b9b9;
      }

      .cls-69 {
        fill: #b8b8b8;
      }

      .cls-70 {
        fill: #b7b7b7;
      }

      .cls-71 {
        fill: #b6b6b6;
      }

      .cls-72 {
        fill: #b5b5b5;
      }

      .cls-73 {
        fill: #b4b4b4;
      }

      .cls-74 {
        fill: #b3b3b3;
      }

      .cls-75 {
        fill: #b2b2b2;
      }

      .cls-76 {
        fill: #b1b1b1;
      }

      .cls-77 {
        fill: #b0b0b0;
      }

      .cls-78 {
        fill: #afafaf;
      }

      .cls-79 {
        fill: #aeaeae;
      }

      .cls-80 {
        fill: #acacac;
      }

      .cls-81 {
        fill: #ababab;
      }

      .cls-82 {
        fill: #aaa;
      }

      .cls-83 {
        fill: #a9a9a9;
      }

      .cls-84 {
        fill: #a8a8a8;
      }

      .cls-85 {
        fill: #a7a7a7;
      }

      .cls-86 {
        fill: #a6a6a6;
      }

      .cls-87 {
        fill: #a5a5a5;
      }

      .cls-88 {
        fill: #a4a4a4;
      }

      .cls-89 {
        fill: #a3a3a3;
      }

      .cls-90 {
        fill: #a2a2a2;
      }

      .cls-91 {
        fill: #a1a1a1;
      }

      .cls-92 {
        fill: #a0a0a0;
      }

      .cls-93 {
        fill: #9f9f9f;
      }

      .cls-94 {
        fill: #9e9e9e;
      }

      .cls-95 {
        fill: #9d9d9d;
      }

      .cls-96 {
        fill: #9c9c9c;
      }

      .cls-97 {
        fill: #9a9a9a;
      }

      .cls-98 {
        fill: #999;
      }

      .cls-99 {
        fill: #989898;
      }

      .cls-100 {
        fill: #979797;
      }

      .cls-101 {
        fill: #969696;
      }

      .cls-102 {
        fill: #959595;
      }

      .cls-103 {
        fill: #949494;
      }

      .cls-104 {
        fill: #939393;
      }

      .cls-105 {
        fill: #929292;
      }

      .cls-106 {
        fill: #919191;
      }

      .cls-107 {
        fill: #909090;
      }

      .cls-108 {
        fill: #8f8f8f;
      }

      .cls-109 {
        fill: #8e8e8e;
      }

      .cls-110 {
        fill: #8d8d8d;
      }

      .cls-111 {
        fill: #8c8c8c;
      }

      .cls-112 {
        fill: #8b8b8b;
      }

      .cls-113 {
        fill: #8a8a8a;
      }

      .cls-114 {
        fill: #898989;
      }

      .cls-115 {
        fill: #888;
      }

      .cls-116 {
        fill: #878787;
      }

      .cls-117 {
        fill: #858585;
      }

      .cls-118 {
        fill: #848484;
      }

      .cls-119 {
        fill: #838383;
      }

      .cls-120 {
        fill: #828282;
      }

      .cls-121 {
        fill: #818181;
      }

      .cls-122 {
        fill: gray;
      }

      .cls-123 {
        fill: #7f7f7f;
      }

      .cls-124 {
        fill: #7e7e7e;
      }

      .cls-125 {
        fill: #7d7d7d;
      }

      .cls-126 {
        fill: #7c7c7c;
      }

      .cls-127 {
        fill: #7b7b7b;
      }

      .cls-128 {
        fill: #7a7a7a;
      }

      .cls-129 {
        fill: #797979;
      }

      .cls-130 {
        fill: #787878;
      }

      .cls-131 {
        fill: #777;
      }

      .cls-132 {
        fill: #767676;
      }

      .cls-133 {
        fill: #757575;
      }

      .cls-134 {
        fill: #747474;
      }

      .cls-135 {
        fill: #737373;
      }

      .cls-136 {
        fill: #727272;
      }

      .cls-137 {
        fill: #717171;
      }

      .cls-138 {
        fill: #707070;
      }

      .cls-139 {
        fill: #6f6f6f;
      }

      .cls-140 {
        fill: #6e6e6e;
      }

      .cls-141 {
        fill: #6d6d6d;
      }

      .cls-142 {
        fill: #6c6c6c;
      }

      .cls-143 {
        fill: #6b6b6b;
      }

      .cls-144 {
        fill: #6a6a6a;
      }

      .cls-145 {
        fill: #696969;
      }

      .cls-146 {
        fill: #686868;
      }

      .cls-147 {
        fill: #676767;
      }

      .cls-148 {
        fill: #666;
      }

      .cls-149 {
        fill: #656565;
      }

      .cls-150 {
        fill: #646464;
      }

      .cls-151 {
        fill: #636363;
      }

      .cls-152 {
        fill: #626262;
      }

      .cls-153 {
        fill: #616161;
      }

      .cls-154 {
        fill: #606060;
      }

      .cls-155 {
        fill: #5f5f5f;
      }

      .cls-156 {
        fill: #5d5d5d;
      }

      .cls-157 {
        fill: #5c5c5c;
      }

      .cls-158 {
        fill: #5b5b5b;
      }

      .cls-159 {
        fill: #5a5a5a;
      }

      .cls-160 {
        fill: #595959;
      }

      .cls-161 {
        fill: #585858;
      }

      .cls-162 {
        fill: #575757;
      }

      .cls-163 {
        fill: #565656;
      }

      .cls-164 {
        fill: #555;
      }

      .cls-165 {
        fill: #545454;
      }

      .cls-166 {
        fill: #535353;
      }

      .cls-167 {
        fill: #525252;
      }

      .cls-168 {
        fill: #515151;
      }

      .cls-169 {
        fill: #505050;
      }

      .cls-170 {
        fill: #4f4f4f;
      }

      .cls-171 {
        fill: #4e4e4e;
      }

      .cls-172 {
        fill: #4d4d4d;
      }

      .cls-173 {
        fill: #4c4c4c;
      }

      .cls-174 {
        fill: #4b4b4b;
      }

      .cls-175 {
        fill: #4a4a4a;
      }

      .cls-176 {
        fill: #494949;
      }

      .cls-177 {
        fill: #484848;
      }

      .cls-178 {
        fill: #474747;
      }

      .cls-179 {
        fill: #464646;
      }

      .cls-180 {
        fill: #454545;
      }

      .cls-181 {
        fill: #444;
      }

      .cls-182 {
        fill: #434343;
      }

      .cls-183 {
        fill: #424242;
      }

      .cls-184 {
        fill: #414141;
      }

      .cls-185 {
        fill: #404040;
      }

      .cls-186 {
        fill: #3f3f3f;
      }

      .cls-187 {
        fill: #3e3e3e;
      }

      .cls-188 {
        fill: #3d3d3d;
      }

      .cls-189 {
        fill: #3c3c3c;
      }

      .cls-190 {
        fill: #3b3b3b;
      }

      .cls-191 {
        fill: #3a3a3a;
      }

      .cls-192 {
        fill: #393939;
      }

      .cls-193 {
        fill: #383838;
      }

      .cls-194 {
        fill: #373737;
      }

      .cls-195 {
        fill: #363636;
      }

      .cls-196 {
        fill: #353535;
      }

      .cls-197 {
        fill: #343434;
      }

      .cls-198 {
        fill: #333;
      }

      .cls-199 {
        fill: #323232;
      }

      .cls-200 {
        fill: #313131;
      }

      .cls-201 {
        fill: #303030;
      }

      .cls-202 {
        fill: #2f2f2f;
      }

      .cls-203 {
        fill: #2e2e2e;
      }

      .cls-204 {
        fill: #2d2d2d;
      }

      .cls-205 {
        fill: #2c2c2c;
      }

      .cls-206 {
        fill: #2b2b2b;
      }

      .cls-207 {
        fill: #2a2a2a;
      }

      .cls-208 {
        fill: #292929;
      }

      .cls-209 {
        fill: #282828;
      }

      .cls-210 {
        fill: #272727;
      }

      .cls-211 {
        fill: #262626;
      }

      .cls-212 {
        fill: #252525;
      }

      .cls-213 {
        fill: #242424;
      }

      .cls-214 {
        fill: #232323;
      }

      .cls-215 {
        fill: #222;
      }

      .cls-216 {
        fill: #212121;
      }

      .cls-217 {
        fill: #202020;
      }

      .cls-218 {
        fill: #1f1f1f;
      }

      .cls-219 {
        fill: #1e1e1e;
      }

      .cls-220 {
        fill: #1d1d1d;
      }

      .cls-221 {
        fill: #1c1c1c;
      }

      .cls-222 {
        fill: #1b1b1b;
      }

      .cls-223 {
        fill: #1a1a1a;
      }

      .cls-224 {
        fill: #191919;
      }

      .cls-225 {
        fill: #181818;
      }

      .cls-226 {
        fill: #171717;
      }

      .cls-227 {
        fill: #161616;
      }

      .cls-228 {
        fill: #151515;
      }

      .cls-229 {
        fill: #141414;
      }

      .cls-230 {
        fill: #131313;
      }

      .cls-231 {
        fill: #121212;
      }

      .cls-232 {
        fill: #111;
      }

      .cls-233 {
        fill: #101010;
      }

      .cls-234 {
        fill: #0f0f0f;
      }

      .cls-235 {
        fill: #0e0e0e;
      }

      .cls-236 {
        fill: #0d0d0d;
      }

      .cls-237 {
        fill: #0c0c0c;
      }

      .cls-238 {
        fill: #0b0b0b;
      }

      .cls-239 {
        fill: #0a0a0a;
      }

      .cls-240 {
        fill: #090909;
      }

      .cls-241 {
        fill: #080808;
      }

      .cls-242 {
        fill: #070707;
      }

      .cls-243 {
        fill: #060606;
      }

      .cls-244 {
        fill: #050505;
      }

      .cls-245 {
        fill: #040404;
      }

      .cls-246 {
        fill: #030303;
      }

      .cls-247 {
        fill: #020202;
      }

      .cls-248 {
        fill: #010101;
      }

      .cls-249 {
        fill: #eff279;
      }
    </style>
    <clipPath id="clip-path" transform="translate(-312.9 -234.36)">
      <circle class="cls-1" cx="322.8" cy="242.7" r="3.8"/>
    </clipPath>
  </defs>
  <title>cam</title>
  <g>
    <path class="cls-2" d="M325.8,246h-8.2a2.43,2.43,0,0,1-2.4-2.4v-4.1a2.43,2.43,0,0,1,2.4-2.4h8.2a2.43,2.43,0,0,1,2.4,2.4v4.1A2.37,2.37,0,0,1,325.8,246Z" transform="translate(-312.9 -234.36)"/>
    <g>
      <g class="cls-3">
        <path class="cls-4" d="M319,238.9v0Z" transform="translate(-312.9 -234.36)"/>
      </g>
      <g class="cls-3">
        <rect class="cls-4" x="6.1" y="4.54" height="7.6"/>
      </g>
      <g class="cls-3">
        <rect class="cls-5" x="6.2" y="4.54" height="7.6"/>
      </g>
      <g class="cls-3">
        <rect class="cls-6" x="6.2" y="4.54" height="7.6"/>
      </g>
      <g class="cls-3">
        <rect class="cls-7" x="6.2" y="4.54" height="7.6"/>
      </g>
      <g class="cls-3">
        <rect class="cls-8" x="6.3" y="4.54" height="7.6"/>
      </g>
      <g class="cls-3">
        <rect class="cls-9" x="6.3" y="4.54" height="7.6"/>
      </g>
      <g class="cls-3">
        <rect class="cls-10" x="6.3" y="4.54" height="7.6"/>
      </g>
      <g class="cls-3">
        <rect class="cls-11" x="6.3" y="4.54" height="7.6"/>
      </g>
      <g class="cls-3">
        <rect class="cls-12" x="6.4" y="4.54" height="7.6"/>
      </g>
      <g class="cls-3">
        <rect class="cls-13" x="6.4" y="4.54" height="7.6"/>
      </g>
      <g class="cls-3">
        <rect class="cls-14" x="6.4" y="4.54" height="7.6"/>
      </g>
      <g class="cls-3">
        <rect class="cls-15" x="6.5" y="4.54" height="7.6"/>
      </g>
      <g class="cls-3">
        <rect class="cls-16" x="6.5" y="4.54" height="7.6"/>
      </g>
      <g class="cls-3">
        <rect class="cls-17" x="6.5" y="4.54" height="7.6"/>
      </g>
      <g class="cls-3">
        <rect class="cls-18" x="6.6" y="4.54" height="7.6"/>
      </g>
      <g class="cls-3">
        <rect class="cls-19" x="6.6" y="4.54" height="7.6"/>
      </g>
      <g class="cls-3">
        <rect class="cls-20" x="6.6" y="4.54" height="7.6"/>
      </g>
      <g class="cls-3">
        <rect class="cls-21" x="6.6" y="4.54" height="7.6"/>
      </g>
      <g class="cls-3">
        <rect class="cls-22" x="6.7" y="4.54" height="7.6"/>
      </g>
      <g class="cls-3">
        <rect class="cls-23" x="6.7" y="4.54" height="7.6"/>
      </g>
      <g class="cls-3">
        <rect class="cls-24" x="6.7" y="4.54" height="7.6"/>
      </g>
      <g class="cls-3">
        <rect class="cls-25" x="6.8" y="4.54" height="7.6"/>
      </g>
      <g class="cls-3">
        <rect class="cls-26" x="6.8" y="4.54" height="7.6"/>
      </g>
      <g class="cls-3">
        <rect class="cls-27" x="6.8" y="4.54" height="7.6"/>
      </g>
      <g class="cls-3">
        <rect class="cls-28" x="6.8" y="4.54" height="7.6"/>
      </g>
      <g class="cls-3">
        <rect class="cls-29" x="6.9" y="4.54" height="7.6"/>
      </g>
      <g class="cls-3">
        <rect class="cls-30" x="6.9" y="4.54" height="7.6"/>
      </g>
      <g class="cls-3">
        <rect class="cls-31" x="6.9" y="4.54" height="7.6"/>
      </g>
      <g class="cls-3">
        <rect class="cls-32" x="7" y="4.54" height="7.6"/>
      </g>
      <g class="cls-3">
        <rect class="cls-33" x="7" y="4.54" height="7.6"/>
      </g>
      <g class="cls-3">
        <rect class="cls-34" x="7" y="4.54" height="7.6"/>
      </g>
      <g class="cls-3">
        <rect class="cls-35" x="7.1" y="4.54" height="7.6"/>
      </g>
      <g class="cls-3">
        <rect class="cls-36" x="7.1" y="4.54" height="7.6"/>
      </g>
      <g class="cls-3">
        <rect class="cls-37" x="7.1" y="4.54" height="7.6"/>
      </g>
      <g class="cls-3">
        <rect class="cls-38" x="7.1" y="4.54" height="7.6"/>
      </g>
      <g class="cls-3">
        <rect class="cls-39" x="7.2" y="4.54" height="7.6"/>
      </g>
      <g class="cls-3">
        <rect class="cls-40" x="7.2" y="4.54" height="7.6"/>
      </g>
      <g class="cls-3">
        <rect class="cls-41" x="7.2" y="4.54" height="7.6"/>
      </g>
      <g class="cls-3">
        <rect class="cls-42" x="7.3" y="4.54" height="7.6"/>
      </g>
      <g class="cls-3">
        <rect class="cls-43" x="7.3" y="4.54" height="7.6"/>
      </g>
      <g class="cls-3">
        <rect class="cls-44" x="7.3" y="4.54" height="7.6"/>
      </g>
      <g class="cls-3">
        <rect class="cls-45" x="7.4" y="4.54" height="7.6"/>
      </g>
      <g class="cls-3">
        <rect class="cls-46" x="7.4" y="4.54" height="7.6"/>
      </g>
      <g class="cls-3">
        <rect class="cls-47" x="7.4" y="4.54" height="7.6"/>
      </g>
      <g class="cls-3">
        <rect class="cls-48" x="7.4" y="4.54" height="7.6"/>
      </g>
      <g class="cls-3">
        <rect class="cls-49" x="7.5" y="4.54" height="7.6"/>
      </g>
      <g class="cls-3">
        <rect class="cls-50" x="7.5" y="4.54" height="7.6"/>
      </g>
      <g class="cls-3">
        <rect class="cls-51" x="7.5" y="4.54" height="7.6"/>
      </g>
      <g class="cls-3">
        <rect class="cls-52" x="7.6" y="4.54" height="7.6"/>
      </g>
      <g class="cls-3">
        <rect class="cls-53" x="7.6" y="4.54" height="7.6"/>
      </g>
      <g class="cls-3">
        <rect class="cls-54" x="7.6" y="4.54" height="7.6"/>
      </g>
      <g class="cls-3">
        <rect class="cls-55" x="7.7" y="4.54" height="7.6"/>
      </g>
      <g class="cls-3">
        <rect class="cls-56" x="7.7" y="4.54" height="7.6"/>
      </g>
      <g class="cls-3">
        <rect class="cls-57" x="7.7" y="4.54" height="7.6"/>
      </g>
      <g class="cls-3">
        <rect class="cls-58" x="7.7" y="4.54" height="7.6"/>
      </g>
      <g class="cls-3">
        <rect class="cls-59" x="7.8" y="4.54" height="7.6"/>
      </g>
      <g class="cls-3">
        <rect class="cls-60" x="7.8" y="4.54" height="7.6"/>
      </g>
      <g class="cls-3">
        <rect class="cls-61" x="7.8" y="4.54" height="7.6"/>
      </g>
      <g class="cls-3">
        <rect class="cls-62" x="7.9" y="4.54" height="7.6"/>
      </g>
      <g class="cls-3">
        <rect class="cls-63" x="7.9" y="4.54" height="7.6"/>
      </g>
      <g class="cls-3">
        <rect class="cls-64" x="7.9" y="4.54" height="7.6"/>
      </g>
      <g class="cls-3">
        <rect class="cls-65" x="8" y="4.54" height="7.6"/>
      </g>
      <g class="cls-3">
        <rect class="cls-66" x="8" y="4.54" height="7.6"/>
      </g>
      <g class="cls-3">
        <rect class="cls-67" x="8" y="4.54" height="7.6"/>
      </g>
      <g class="cls-3">
        <rect class="cls-68" x="8" y="4.54" height="7.6"/>
      </g>
      <g class="cls-3">
        <rect class="cls-69" x="8.1" y="4.54" height="7.6"/>
      </g>
      <g class="cls-3">
        <rect class="cls-70" x="8.1" y="4.54" height="7.6"/>
      </g>
      <g class="cls-3">
        <rect class="cls-71" x="8.1" y="4.54" height="7.6"/>
      </g>
      <g class="cls-3">
        <rect class="cls-72" x="8.2" y="4.54" height="7.6"/>
      </g>
      <g class="cls-3">
        <rect class="cls-73" x="8.2" y="4.54" height="7.6"/>
      </g>
      <g class="cls-3">
        <rect class="cls-74" x="8.2" y="4.54" height="7.6"/>
      </g>
      <g class="cls-3">
        <rect class="cls-75" x="8.2" y="4.54" height="7.6"/>
      </g>
      <g class="cls-3">
        <rect class="cls-76" x="8.3" y="4.54" height="7.6"/>
      </g>
      <g class="cls-3">
        <rect class="cls-77" x="8.3" y="4.54" height="7.6"/>
      </g>
      <g class="cls-3">
        <rect class="cls-78" x="8.3" y="4.54" height="7.6"/>
      </g>
      <g class="cls-3">
        <rect class="cls-79" x="8.4" y="4.54" height="7.6"/>
      </g>
      <g class="cls-3">
        <rect class="cls-80" x="8.4" y="4.54" height="7.6"/>
      </g>
      <g class="cls-3">
        <rect class="cls-81" x="8.4" y="4.54" height="7.6"/>
      </g>
      <g class="cls-3">
        <rect class="cls-82" x="8.5" y="4.54" height="7.6"/>
      </g>
      <g class="cls-3">
        <rect class="cls-83" x="8.5" y="4.54" height="7.6"/>
      </g>
      <g class="cls-3">
        <rect class="cls-84" x="8.5" y="4.54" height="7.6"/>
      </g>
      <g class="cls-3">
        <rect class="cls-85" x="8.5" y="4.54" height="7.6"/>
      </g>
      <g class="cls-3">
        <rect class="cls-86" x="8.6" y="4.54" height="7.6"/>
      </g>
      <g class="cls-3">
        <rect class="cls-87" x="8.6" y="4.54" height="7.6"/>
      </g>
      <g class="cls-3">
        <rect class="cls-88" x="8.6" y="4.54" height="7.6"/>
      </g>
      <g class="cls-3">
        <rect class="cls-89" x="8.7" y="4.54" height="7.6"/>
      </g>
      <g class="cls-3">
        <rect class="cls-90" x="8.7" y="4.54" height="7.6"/>
      </g>
      <g class="cls-3">
        <rect class="cls-91" x="8.7" y="4.54" height="7.6"/>
      </g>
      <g class="cls-3">
        <rect class="cls-92" x="8.8" y="4.54" height="7.6"/>
      </g>
      <g class="cls-3">
        <rect class="cls-93" x="8.8" y="4.54" height="7.6"/>
      </g>
      <g class="cls-3">
        <rect class="cls-94" x="8.8" y="4.54" height="7.6"/>
      </g>
      <g class="cls-3">
        <rect class="cls-95" x="8.8" y="4.54" height="7.6"/>
      </g>
      <g class="cls-3">
        <rect class="cls-96" x="8.9" y="4.54" height="7.6"/>
      </g>
      <g class="cls-3">
        <rect class="cls-97" x="8.9" y="4.54" height="7.6"/>
      </g>
      <g class="cls-3">
        <rect class="cls-98" x="8.9" y="4.54" height="7.6"/>
      </g>
      <g class="cls-3">
        <rect class="cls-99" x="9" y="4.54" height="7.6"/>
      </g>
      <g class="cls-3">
        <rect class="cls-100" x="9" y="4.54" height="7.6"/>
      </g>
      <g class="cls-3">
        <rect class="cls-101" x="9" y="4.54" height="7.6"/>
      </g>
      <g class="cls-3">
        <rect class="cls-102" x="9.1" y="4.54" height="7.6"/>
      </g>
      <g class="cls-3">
        <rect class="cls-103" x="9.1" y="4.54" height="7.6"/>
      </g>
      <g class="cls-3">
        <rect class="cls-104" x="9.1" y="4.54" height="7.6"/>
      </g>
      <g class="cls-3">
        <rect class="cls-105" x="9.1" y="4.54" height="7.6"/>
      </g>
      <g class="cls-3">
        <rect class="cls-106" x="9.2" y="4.54" height="7.6"/>
      </g>
      <g class="cls-3">
        <rect class="cls-107" x="9.2" y="4.54" height="7.6"/>
      </g>
      <g class="cls-3">
        <rect class="cls-108" x="9.2" y="4.54" height="7.6"/>
      </g>
      <g class="cls-3">
        <rect class="cls-109" x="9.3" y="4.54" height="7.6"/>
      </g>
      <g class="cls-3">
        <rect class="cls-110" x="9.3" y="4.54" height="7.6"/>
      </g>
      <g class="cls-3">
        <rect class="cls-111" x="9.3" y="4.54" height="7.6"/>
      </g>
      <g class="cls-3">
        <rect class="cls-112" x="9.4" y="4.54" height="7.6"/>
      </g>
      <g class="cls-3">
        <rect class="cls-113" x="9.4" y="4.54" height="7.6"/>
      </g>
      <g class="cls-3">
        <rect class="cls-114" x="9.4" y="4.54" height="7.6"/>
      </g>
      <g class="cls-3">
        <rect class="cls-115" x="9.4" y="4.54" height="7.6"/>
      </g>
      <g class="cls-3">
        <rect class="cls-116" x="9.5" y="4.54" height="7.6"/>
      </g>
      <g class="cls-3">
        <rect class="cls-117" x="9.5" y="4.54" height="7.6"/>
      </g>
      <g class="cls-3">
        <rect class="cls-118" x="9.5" y="4.54" height="7.6"/>
      </g>
      <g class="cls-3">
        <rect class="cls-119" x="9.6" y="4.54" height="7.6"/>
      </g>
      <g class="cls-3">
        <rect class="cls-120" x="9.6" y="4.54" height="7.6"/>
      </g>
      <g class="cls-3">
        <rect class="cls-121" x="9.6" y="4.54" height="7.6"/>
      </g>
      <g class="cls-3">
        <rect class="cls-122" x="9.7" y="4.54" height="7.6"/>
      </g>
      <g class="cls-3">
        <rect class="cls-123" x="9.7" y="4.54" height="7.6"/>
      </g>
      <g class="cls-3">
        <rect class="cls-124" x="9.7" y="4.54" height="7.6"/>
      </g>
      <g class="cls-3">
        <rect class="cls-125" x="9.7" y="4.54" height="7.6"/>
      </g>
      <g class="cls-3">
        <rect class="cls-126" x="9.8" y="4.54" height="7.6"/>
      </g>
      <g class="cls-3">
        <rect class="cls-127" x="9.8" y="4.54" height="7.6"/>
      </g>
      <g class="cls-3">
        <rect class="cls-128" x="9.8" y="4.54" height="7.6"/>
      </g>
      <g class="cls-3">
        <rect class="cls-129" x="9.9" y="4.54" height="7.6"/>
      </g>
      <g class="cls-3">
        <rect class="cls-130" x="9.9" y="4.54" height="7.6"/>
      </g>
      <g class="cls-3">
        <rect class="cls-131" x="9.9" y="4.54" height="7.6"/>
      </g>
      <g class="cls-3">
        <rect class="cls-132" x="9.9" y="4.54" height="7.6"/>
      </g>
      <g class="cls-3">
        <rect class="cls-133" x="10" y="4.54" height="7.6"/>
      </g>
      <g class="cls-3">
        <rect class="cls-134" x="10" y="4.54" height="7.6"/>
      </g>
      <g class="cls-3">
        <rect class="cls-135" x="10" y="4.54" height="7.6"/>
      </g>
      <g class="cls-3">
        <rect class="cls-136" x="10.1" y="4.54" height="7.6"/>
      </g>
      <g class="cls-3">
        <rect class="cls-137" x="10.1" y="4.54" height="7.6"/>
      </g>
      <g class="cls-3">
        <rect class="cls-138" x="10.1" y="4.54" height="7.6"/>
      </g>
      <g class="cls-3">
        <rect class="cls-139" x="10.2" y="4.54" height="7.6"/>
      </g>
      <g class="cls-3">
        <rect class="cls-140" x="10.2" y="4.54" height="7.6"/>
      </g>
      <g class="cls-3">
        <rect class="cls-141" x="10.2" y="4.54" height="7.6"/>
      </g>
      <g class="cls-3">
        <rect class="cls-142" x="10.2" y="4.54" height="7.6"/>
      </g>
      <g class="cls-3">
        <rect class="cls-143" x="10.3" y="4.54" height="7.6"/>
      </g>
      <g class="cls-3">
        <rect class="cls-144" x="10.3" y="4.54" height="7.6"/>
      </g>
      <g class="cls-3">
        <rect class="cls-145" x="10.3" y="4.54" height="7.6"/>
      </g>
      <g class="cls-3">
        <rect class="cls-146" x="10.4" y="4.54" height="7.6"/>
      </g>
      <g class="cls-3">
        <rect class="cls-147" x="10.4" y="4.54" height="7.6"/>
      </g>
      <g class="cls-3">
        <rect class="cls-148" x="10.4" y="4.54" height="7.6"/>
      </g>
      <g class="cls-3">
        <rect class="cls-149" x="10.5" y="4.54" height="7.6"/>
      </g>
      <g class="cls-3">
        <rect class="cls-150" x="10.5" y="4.54" height="7.6"/>
      </g>
      <g class="cls-3">
        <rect class="cls-151" x="10.5" y="4.54" height="7.6"/>
      </g>
      <g class="cls-3">
        <rect class="cls-152" x="10.5" y="4.54" height="7.6"/>
      </g>
      <g class="cls-3">
        <rect class="cls-153" x="10.6" y="4.54" height="7.6"/>
      </g>
      <g class="cls-3">
        <rect class="cls-154" x="10.6" y="4.54" height="7.6"/>
      </g>
      <g class="cls-3">
        <rect class="cls-155" x="10.6" y="4.54" height="7.6"/>
      </g>
      <g class="cls-3">
        <rect class="cls-156" x="10.7" y="4.54" height="7.6"/>
      </g>
      <g class="cls-3">
        <rect class="cls-157" x="10.7" y="4.54" height="7.6"/>
      </g>
      <g class="cls-3">
        <rect class="cls-158" x="10.7" y="4.54" height="7.6"/>
      </g>
      <g class="cls-3">
        <rect class="cls-159" x="10.8" y="4.54" height="7.6"/>
      </g>
      <g class="cls-3">
        <rect class="cls-160" x="10.8" y="4.54" height="7.6"/>
      </g>
      <g class="cls-3">
        <rect class="cls-161" x="10.8" y="4.54" height="7.6"/>
      </g>
      <g class="cls-3">
        <rect class="cls-162" x="10.8" y="4.54" height="7.6"/>
      </g>
      <g class="cls-3">
        <rect class="cls-163" x="10.9" y="4.54" height="7.6"/>
      </g>
      <g class="cls-3">
        <rect class="cls-164" x="10.9" y="4.54" height="7.6"/>
      </g>
      <g class="cls-3">
        <rect class="cls-165" x="10.9" y="4.54" height="7.6"/>
      </g>
      <g class="cls-3">
        <rect class="cls-166" x="11" y="4.54" height="7.6"/>
      </g>
      <g class="cls-3">
        <rect class="cls-167" x="11" y="4.54" height="7.6"/>
      </g>
      <g class="cls-3">
        <rect class="cls-168" x="11" y="4.54" height="7.6"/>
      </g>
      <g class="cls-3">
        <rect class="cls-169" x="11.1" y="4.54" height="7.6"/>
      </g>
      <g class="cls-3">
        <rect class="cls-170" x="11.1" y="4.54" height="7.6"/>
      </g>
      <g class="cls-3">
        <rect class="cls-171" x="11.1" y="4.54" height="7.6"/>
      </g>
      <g class="cls-3">
        <rect class="cls-171" x="11.1" y="4.54" height="7.6"/>
      </g>
      <g class="cls-3">
        <rect class="cls-172" x="11.2" y="4.54" height="7.6"/>
      </g>
      <g class="cls-3">
        <rect class="cls-173" x="11.2" y="4.54" height="7.6"/>
      </g>
      <g class="cls-3">
        <rect class="cls-174" x="11.2" y="4.54" height="7.6"/>
      </g>
      <g class="cls-3">
        <rect class="cls-175" x="11.3" y="4.54" height="7.6"/>
      </g>
      <g class="cls-3">
        <rect class="cls-176" x="11.3" y="4.54" height="7.6"/>
      </g>
      <g class="cls-3">
        <rect class="cls-177" x="11.3" y="4.54" height="7.6"/>
      </g>
      <g class="cls-3">
        <rect class="cls-178" x="11.3" y="4.54" height="7.6"/>
      </g>
      <g class="cls-3">
        <rect class="cls-179" x="11.4" y="4.54" height="7.6"/>
      </g>
      <g class="cls-3">
        <rect class="cls-180" x="11.4" y="4.54" height="7.6"/>
      </g>
      <g class="cls-3">
        <rect class="cls-181" x="11.4" y="4.54" height="7.6"/>
      </g>
      <g class="cls-3">
        <rect class="cls-182" x="11.5" y="4.54" height="7.6"/>
      </g>
      <g class="cls-3">
        <rect class="cls-183" x="11.5" y="4.54" height="7.6"/>
      </g>
      <g class="cls-3">
        <rect class="cls-184" x="11.5" y="4.54" height="7.6"/>
      </g>
      <g class="cls-3">
        <rect class="cls-185" x="11.6" y="4.54" height="7.6"/>
      </g>
      <g class="cls-3">
        <rect class="cls-186" x="11.6" y="4.54" height="7.6"/>
      </g>
      <g class="cls-3">
        <rect class="cls-187" x="11.6" y="4.54" height="7.6"/>
      </g>
      <g class="cls-3">
        <rect class="cls-188" x="11.6" y="4.54" height="7.6"/>
      </g>
      <g class="cls-3">
        <rect class="cls-189" x="11.7" y="4.54" height="7.6"/>
      </g>
      <g class="cls-3">
        <rect class="cls-190" x="11.7" y="4.54" height="7.6"/>
      </g>
      <g class="cls-3">
        <rect class="cls-191" x="11.7" y="4.54" height="7.6"/>
      </g>
      <g class="cls-3">
        <rect class="cls-192" x="11.8" y="4.54" height="7.6"/>
      </g>
      <g class="cls-3">
        <rect class="cls-193" x="11.8" y="4.54" height="7.6"/>
      </g>
      <g class="cls-3">
        <rect class="cls-194" x="11.8" y="4.54" height="7.6"/>
      </g>
      <g class="cls-3">
        <rect class="cls-195" x="11.9" y="4.54" height="7.6"/>
      </g>
      <g class="cls-3">
        <rect class="cls-196" x="11.9" y="4.54" height="7.6"/>
      </g>
      <g class="cls-3">
        <rect class="cls-197" x="11.9" y="4.54" height="7.6"/>
      </g>
      <g class="cls-3">
        <rect class="cls-198" x="11.9" y="4.54" height="7.6"/>
      </g>
      <g class="cls-3">
        <rect class="cls-199" x="12" y="4.54" height="7.6"/>
      </g>
      <g class="cls-3">
        <rect class="cls-200" x="12" y="4.54" height="7.6"/>
      </g>
      <g class="cls-3">
        <rect class="cls-201" x="12" y="4.54" height="7.6"/>
      </g>
      <g class="cls-3">
        <rect class="cls-202" x="12.1" y="4.54" height="7.6"/>
      </g>
      <g class="cls-3">
        <rect class="cls-203" x="12.1" y="4.54" height="7.6"/>
      </g>
      <g class="cls-3">
        <rect class="cls-203" x="12.1" y="4.54" height="7.6"/>
      </g>
      <g class="cls-3">
        <rect class="cls-204" x="12.2" y="4.54" height="7.6"/>
      </g>
      <g class="cls-3">
        <rect class="cls-205" x="12.2" y="4.54" height="7.6"/>
      </g>
      <g class="cls-3">
        <rect class="cls-206" x="12.2" y="4.54" height="7.6"/>
      </g>
      <g class="cls-3">
        <rect class="cls-207" x="12.2" y="4.54" height="7.6"/>
      </g>
      <g class="cls-3">
        <rect class="cls-208" x="12.3" y="4.54" height="7.6"/>
      </g>
      <g class="cls-3">
        <rect class="cls-209" x="12.3" y="4.54" height="7.6"/>
      </g>
      <g class="cls-3">
        <rect class="cls-210" x="12.3" y="4.54" height="7.6"/>
      </g>
      <g class="cls-3">
        <rect class="cls-211" x="12.4" y="4.54" height="7.6"/>
      </g>
      <g class="cls-3">
        <rect class="cls-212" x="12.4" y="4.54" height="7.6"/>
      </g>
      <g class="cls-3">
        <rect class="cls-213" x="12.4" y="4.54" height="7.6"/>
      </g>
      <g class="cls-3">
        <rect class="cls-214" x="12.5" y="4.54" height="7.6"/>
      </g>
      <g class="cls-3">
        <rect class="cls-215" x="12.5" y="4.54" height="7.6"/>
      </g>
      <g class="cls-3">
        <rect class="cls-216" x="12.5" y="4.54" height="7.6"/>
      </g>
      <g class="cls-3">
        <rect class="cls-217" x="12.5" y="4.54" height="7.6"/>
      </g>
      <g class="cls-3">
        <rect class="cls-217" x="12.6" y="4.54" height="7.6"/>
      </g>
      <g class="cls-3">
        <rect class="cls-218" x="12.6" y="4.54" height="7.6"/>
      </g>
      <g class="cls-3">
        <rect class="cls-219" x="12.6" y="4.54" height="7.6"/>
      </g>
      <g class="cls-3">
        <rect class="cls-220" x="12.7" y="4.54" height="7.6"/>
      </g>
      <g class="cls-3">
        <rect class="cls-221" x="12.7" y="4.54" height="7.6"/>
      </g>
      <g class="cls-3">
        <rect class="cls-222" x="12.7" y="4.54" height="7.6"/>
      </g>
      <g class="cls-3">
        <rect class="cls-223" x="12.7" y="4.54" height="7.6"/>
      </g>
      <g class="cls-3">
        <rect class="cls-224" x="12.8" y="4.54" height="7.6"/>
      </g>
      <g class="cls-3">
        <rect class="cls-225" x="12.8" y="4.54" height="7.6"/>
      </g>
      <g class="cls-3">
        <rect class="cls-226" x="12.8" y="4.54" height="7.6"/>
      </g>
      <g class="cls-3">
        <rect class="cls-226" x="12.9" y="4.54" height="7.6"/>
      </g>
      <g class="cls-3">
        <rect class="cls-227" x="12.9" y="4.54" height="7.6"/>
      </g>
      <g class="cls-3">
        <rect class="cls-228" x="12.9" y="4.54" height="7.6"/>
      </g>
      <g class="cls-3">
        <rect class="cls-229" x="13" y="4.54" height="7.6"/>
      </g>
      <g class="cls-3">
        <rect class="cls-230" x="13" y="4.54" height="7.6"/>
      </g>
      <g class="cls-3">
        <rect class="cls-231" x="13" y="4.54" height="7.6"/>
      </g>
      <g class="cls-3">
        <rect class="cls-232" x="13" y="4.54" height="7.6"/>
      </g>
      <g class="cls-3">
        <rect class="cls-233" x="13.1" y="4.54" height="7.6"/>
      </g>
      <g class="cls-3">
        <rect class="cls-233" x="13.1" y="4.54" height="7.6"/>
      </g>
      <g class="cls-3">
        <rect class="cls-234" x="13.1" y="4.54" height="7.6"/>
      </g>
      <g class="cls-3">
        <rect class="cls-235" x="13.2" y="4.54" height="7.6"/>
      </g>
      <g class="cls-3">
        <rect class="cls-236" x="13.2" y="4.54" height="7.6"/>
      </g>
      <g class="cls-3">
        <rect class="cls-237" x="13.2" y="4.54" height="7.6"/>
      </g>
      <g class="cls-3">
        <rect class="cls-238" x="13.3" y="4.54" height="7.6"/>
      </g>
      <g class="cls-3">
        <rect class="cls-238" x="13.3" y="4.54" height="7.6"/>
      </g>
      <g class="cls-3">
        <rect class="cls-239" x="13.3" y="4.54" height="7.6"/>
      </g>
      <g class="cls-3">
        <rect class="cls-240" x="13.3" y="4.54" height="7.6"/>
      </g>
      <g class="cls-3">
        <rect class="cls-241" x="13.4" y="4.54" height="7.6"/>
      </g>
      <g class="cls-3">
        <rect class="cls-242" x="13.4" y="4.54" height="7.6"/>
      </g>
      <g class="cls-3">
        <rect class="cls-243" x="13.4" y="4.54" height="7.6"/>
      </g>
      <g class="cls-3">
        <rect class="cls-243" x="13.5" y="4.54" height="7.6"/>
      </g>
      <g class="cls-3">
        <rect class="cls-244" x="13.5" y="4.54" height="7.6"/>
      </g>
      <g class="cls-3">
        <rect class="cls-245" x="13.5" y="4.54" height="7.6"/>
      </g>
      <g class="cls-3">
        <rect class="cls-246" x="13.6" y="4.54" height="7.6"/>
      </g>
      <g class="cls-3">
        <rect class="cls-246" x="13.6" y="4.54" height="7.6"/>
      </g>
      <g class="cls-3">
        <rect class="cls-247" x="13.6" y="4.54" height="7.6"/>
      </g>
      <g class="cls-3">
        <rect class="cls-248" x="13.6" y="4.54" height="7.6"/>
      </g>
      <g class="cls-3">
        <rect class="cls-248" x="13.7" y="4.54" height="7.6"/>
      </g>
      <g class="cls-3">
        <rect x="13.7" y="4.54" height="7.6"/>
      </g>
      <g class="cls-3">
        <path d="M326.6,246.5v0Z" transform="translate(-312.9 -234.36)"/>
      </g>
    </g>
    <path d="M322.8,246.9a4.2,4.2,0,1,1,4.2-4.2A4.23,4.23,0,0,1,322.8,246.9Zm0-7.6a3.4,3.4,0,1,0,3.4,3.4A3.37,3.37,0,0,0,322.8,239.3Z" transform="translate(-312.9 -234.36)"/>
    <path class="cls-249" d="M318.4,239.5h-1.5a.68.68,0,0,1-.7-.7h0a.68.68,0,0,1,.7-.7h1.5a.68.68,0,0,1,.7.7h0A.68.68,0,0,1,318.4,239.5Z" transform="translate(-312.9 -234.36)"/>
    <path class="cls-2" d="M325.5,237.4h-.8a.43.43,0,0,1-.4-.4h0a.43.43,0,0,1,.4-.4h.8a.43.43,0,0,1,.4.4h0A.43.43,0,0,1,325.5,237.4Z" transform="translate(-312.9 -234.36)"/>
    <g>
      <path class="cls-249" d="M315.3,239.1h-2.2a.2.2,0,0,1,0-.4h2.2a.2.2,0,0,1,0,.4Z" transform="translate(-312.9 -234.36)"/>
      <path class="cls-249" d="M315.7,237.7h-.1l-1.8-1.3a.21.21,0,0,1,.3-.3l1.8,1.3a.19.19,0,0,1,0,.3Z" transform="translate(-312.9 -234.36)"/>
      <path class="cls-249" d="M316.9,236.9a.35.35,0,0,1-.2-.1l-.7-2.1a.22.22,0,1,1,.4-.2l.7,2.1c0,.1,0,.2-.2.3Z" transform="translate(-312.9 -234.36)"/>
      <path class="cls-249" d="M318.4,236.9h0c-.2,0-.2-.2-.2-.3l.7-2.1c0-.1.1-.2.3-.1s.2.1.1.3l-.7,2.1C318.5,236.8,318.5,236.9,318.4,236.9Z" transform="translate(-312.9 -234.36)"/>
      <path class="cls-249" d="M319.5,237.7c-.1,0-.1,0-.2-.1s0-.2,0-.3l1.8-1.3c.1-.1.2,0,.3,0s0,.2,0,.3l-1.8,1.3C319.6,237.7,319.6,237.7,319.5,237.7Z" transform="translate(-312.9 -234.36)"/>
      <path class="cls-249" d="M322.2,239.1H320a.2.2,0,0,1,0-.4h2.2a.2.2,0,0,1,0,.4Z" transform="translate(-312.9 -234.36)"/>
    </g>
  </g>
</svg>
